# xmcd
#
# Track frame offsets: 
#        150
#        19022
#        33797
#        53380
#        75321
#        100765
#        128559
#        139739
#        152800
#        169208
#
# Disc length: 2479 seconds
#
# Revision: 1
# Processed by: cddbd v1.5.2PL0 Copyright (c) Steve Scherf et al.
# Submitted via: ExactAudioCopyFreeDBPlugin 1.0
#
DISCID=6809ad0a
DTITLE=Troll - Neo-Satanic Supremacy
DYEAR=2010
DGENRE=Black Metal
TTITLE0=Til Helvete Med Alt
TTITLE1=Alt For Satan
TTITLE2=Gå Til Krig
TTITLE3=Burn The witch
TTITLE4=Mørkets Skoger
TTITLE5=Hvor Tåken Ligger Så Trist Og Grå
TTITLE6=Neo-Satanic Supremacy
TTITLE7=At The Gates Of Hell
TTITLE8=Smertens Rike
TTITLE9=The Age Of Satan
EXTD=
EXTT0=
EXTT1=
EXTT2=
EXTT3=
EXTT4=
EXTT5=
EXTT6=
EXTT7=
EXTT8=
EXTT9=
PLAYORDER=
